<?xml version="1.0"?>
<svg xmlns="http://www.w3.org/2000/svg"
xmlns:xlink="http://www.w3.org/1999/xlink" xmlns:cml="http://www.xml-cml.org/schema" width="461.051" height="220" x="0" y="0" font-family="sans-serif" stroke="rgb(0,0,0)" stroke-width="1"  stroke-linecap="round">
<rect x="0%" y="0%" width="100%" height="100%" stroke-width="0" fill="rgb(255,255,255)"  />
<line x1="214.0" y1="128.0" x2="212.4" y2="128.0" stroke="rgb(0,0,0)"  stroke-width="1.0"/>
<line x1="214.6" y1="134.4" x2="211.8" y2="134.4" stroke="rgb(0,0,0)"  stroke-width="1.0"/>
<line x1="215.3" y1="140.8" x2="211.1" y2="140.8" stroke="rgb(0,0,0)"  stroke-width="1.0"/>
<line x1="215.9" y1="147.2" x2="210.5" y2="147.2" stroke="rgb(0,0,0)"  stroke-width="1.0"/>
<line x1="216.6" y1="153.6" x2="209.8" y2="153.6" stroke="rgb(0,0,0)"  stroke-width="1.0"/>
<line x1="217.2" y1="160.0" x2="209.2" y2="160.0" stroke="rgb(0,0,0)"  stroke-width="1.0"/>
<line x1="282.5" y1="160.0" x2="247.8" y2="180.0" stroke="rgb(0,0,0)"  stroke-width="1.0"/>
<line x1="247.8" y1="180.0" x2="213.2" y2="160.0" stroke="rgb(0,0,0)"  stroke-width="1.0"/>
<line x1="246.2" y1="170.8" x2="222.0" y2="156.8" stroke="rgb(0,0,0)"  stroke-width="1.0"/>
<line x1="213.2" y1="160.0" x2="213.2" y2="120.0" stroke="rgb(0,0,0)"  stroke-width="1.0"/>
<line x1="213.2" y1="120.0" x2="247.8" y2="100.0" stroke="rgb(0,0,0)"  stroke-width="1.0"/>
<line x1="247.8" y1="100.0" x2="282.5" y2="120.0" stroke="rgb(0,0,0)"  stroke-width="1.0"/>
<line x1="249.4" y1="109.2" x2="273.7" y2="123.2" stroke="rgb(0,0,0)"  stroke-width="1.0"/>
<line x1="282.5" y1="120.0" x2="282.5" y2="160.0" stroke="rgb(0,0,0)"  stroke-width="1.0"/>
<line x1="351.8" y1="120.0" x2="351.8" y2="147.0" stroke="rgb(0,0,0)"  stroke-width="1.0"/>
<line x1="340.5" y1="166.5" x2="317.1" y2="180.0" stroke="rgb(0,0,0)"  stroke-width="1.0"/>
<line x1="317.1" y1="180.0" x2="282.5" y2="160.0" stroke="rgb(0,0,0)"  stroke-width="1.0"/>
<line x1="315.5" y1="170.8" x2="291.3" y2="156.8" stroke="rgb(0,0,0)"  stroke-width="1.0"/>
<line x1="282.5" y1="120.0" x2="317.1" y2="100.0" stroke="rgb(0,0,0)"  stroke-width="1.0"/>
<line x1="317.1" y1="100.0" x2="351.8" y2="120.0" stroke="rgb(0,0,0)"  stroke-width="1.0"/>
<line x1="318.7" y1="109.2" x2="343.0" y2="123.2" stroke="rgb(0,0,0)"  stroke-width="1.0"/>
<line x1="421.1" y1="120.0" x2="421.1" y2="160.0" stroke="rgb(0,0,0)"  stroke-width="1.0"/>
<line x1="421.1" y1="160.0" x2="386.4" y2="180.0" stroke="rgb(0,0,0)"  stroke-width="1.0"/>
<line x1="412.3" y1="156.8" x2="388.0" y2="170.8" stroke="rgb(0,0,0)"  stroke-width="1.0"/>
<line x1="386.4" y1="180.0" x2="363.0" y2="166.5" stroke="rgb(0,0,0)"  stroke-width="1.0"/>
<line x1="351.8" y1="120.0" x2="386.4" y2="100.0" stroke="rgb(0,0,0)"  stroke-width="1.0"/>
<line x1="386.4" y1="100.0" x2="421.1" y2="120.0" stroke="rgb(0,0,0)"  stroke-width="1.0"/>
<line x1="388.0" y1="109.2" x2="412.3" y2="123.2" stroke="rgb(0,0,0)"  stroke-width="1.0"/>
<line x1="178.6" y1="100.0" x2="143.9" y2="120.0" stroke="rgb(0,0,0)"  stroke-width="1.0"/>
<line x1="177.0" y1="109.2" x2="152.7" y2="123.2" stroke="rgb(0,0,0)"  stroke-width="1.0"/>
<line x1="143.9" y1="120.0" x2="143.9" y2="160.0" stroke="rgb(0,0,0)"  stroke-width="1.0"/>
<line x1="143.9" y1="160.0" x2="167.1" y2="173.4" stroke="rgb(0,0,0)"  stroke-width="1.0"/>
<line x1="152.7" y1="156.8" x2="169.0" y2="166.2" stroke="rgb(0,0,0)"  stroke-width="1.0"/>
<line x1="189.8" y1="173.5" x2="213.2" y2="160.0" stroke="rgb(0,0,0)"  stroke-width="1.0"/>
<line x1="213.2" y1="120.0" x2="178.6" y2="100.0" stroke="rgb(0,0,0)"  stroke-width="1.0"/>
<line x1="143.9" y1="40.0" x2="109.3" y2="60.0" stroke="rgb(0,0,0)"  stroke-width="1.0"/>
<line x1="109.3" y1="60.0" x2="109.3" y2="100.0" stroke="rgb(0,0,0)"  stroke-width="1.0"/>
<line x1="109.3" y1="100.0" x2="143.9" y2="120.0" stroke="rgb(0,0,0)"  stroke-width="1.0"/>
<line x1="178.6" y1="100.0" x2="178.6" y2="60.0" stroke="rgb(0,0,0)"  stroke-width="1.0"/>
<line x1="178.6" y1="60.0" x2="143.9" y2="40.0" stroke="rgb(0,0,0)"  stroke-width="1.0"/>
<line x1="169.8" y1="63.2" x2="145.5" y2="49.2" stroke="rgb(0,0,0)"  stroke-width="1.0"/>
<line x1="40.0" y1="60.0" x2="40.0" y2="100.0" stroke="rgb(0,0,0)"  stroke-width="1.0"/>
<line x1="47.2" y1="66.0" x2="47.2" y2="94.0" stroke="rgb(0,0,0)"  stroke-width="1.0"/>
<line x1="40.0" y1="100.0" x2="74.6" y2="120.0" stroke="rgb(0,0,0)"  stroke-width="1.0"/>
<line x1="74.6" y1="120.0" x2="109.3" y2="100.0" stroke="rgb(0,0,0)"  stroke-width="1.0"/>
<line x1="76.2" y1="110.8" x2="100.5" y2="96.8" stroke="rgb(0,0,0)"  stroke-width="1.0"/>
<line x1="109.3" y1="60.0" x2="74.6" y2="40.0" stroke="rgb(0,0,0)"  stroke-width="1.0"/>
<line x1="100.5" y1="63.2" x2="76.2" y2="49.2" stroke="rgb(0,0,0)"  stroke-width="1.0"/>
<line x1="74.6" y1="40.0" x2="40.0" y2="60.0" stroke="rgb(0,0,0)"  stroke-width="1.0"/>
<text x="345.769145" y="168.000000" fill="rgb(12,12,255)"  stroke="rgb(12,12,255)" stroke-width="1" font-size="16" >N</text>
<text x="172.564065" y="188.000000" fill="rgb(255,181,181)"  stroke="rgb(255,181,181)" stroke-width="1" font-size="16" >B</text>
<text x="172.564065" y="204.000000" fill="rgb(255,181,181)"  stroke="rgb(255,181,181)" stroke-width="1" font-size="16" >H</text>
<text font-size="18.000000" fill ="black" font-family="sans-serif"
x="10.000000" y="20.000000" >BNPAH_000428_PAH74   C24_H16_N01_B01 -1003.18301878     0.00000000    11.57886000  5259.11306115     8.38093014   228.05672521 22004.12904785    30.57623873     0.04872634     1.32591119   127.93098285    -4.06420000    -0.14935660   -93.72267923  -392.13568990    -3.11460000    -0.11445944   -71.82438284  -300.51321780     0.94960000     0.03489716    21.89829639    91.62247211</text>
<title>BNPAH_000428_PAH74   C24_H16_N01_B01 -1003.18301878     0.00000000    11.57886000  5259.11306115     8.38093014   228.05672521 22004.12904785    30.57623873     0.04872634     1.32591119   127.93098285    -4.06420000    -0.14935660   -93.72267923  -392.13568990    -3.11460000    -0.11445944   -71.82438284  -300.51321780     0.94960000     0.03489716    21.89829639    91.62247211 - OBDepict</title>
</svg>
