<?xml version="1.0"?>
<svg xmlns="http://www.w3.org/2000/svg"
xmlns:xlink="http://www.w3.org/1999/xlink" xmlns:cml="http://www.xml-cml.org/schema" width="357.327" height="220.485" x="0" y="0" font-family="sans-serif" stroke="rgb(0,0,0)" stroke-width="1"  stroke-linecap="round">
<rect x="0%" y="0%" width="100%" height="100%" stroke-width="0" fill="rgb(255,255,255)"  />
<line x1="219.8" y1="115.7" x2="220.6" y2="117.1" stroke="rgb(0,0,0)"  stroke-width="1.0"/>
<line x1="225.0" y1="111.9" x2="226.5" y2="114.4" stroke="rgb(0,0,0)"  stroke-width="1.0"/>
<line x1="230.3" y1="108.2" x2="232.3" y2="111.8" stroke="rgb(0,0,0)"  stroke-width="1.0"/>
<line x1="235.5" y1="104.4" x2="238.2" y2="109.1" stroke="rgb(0,0,0)"  stroke-width="1.0"/>
<line x1="240.7" y1="100.7" x2="244.1" y2="106.5" stroke="rgb(0,0,0)"  stroke-width="1.0"/>
<line x1="246.0" y1="96.9" x2="250.0" y2="103.8" stroke="rgb(0,0,0)"  stroke-width="1.0"/>
<line x1="317.3" y1="73.5" x2="317.3" y2="100.4" stroke="rgb(0,0,0)"  stroke-width="1.0"/>
<line x1="310.1" y1="75.5" x2="310.1" y2="94.4" stroke="rgb(0,0,0)"  stroke-width="1.0"/>
<line x1="317.3" y1="100.4" x2="282.6" y2="120.4" stroke="rgb(0,0,0)"  stroke-width="1.0"/>
<line x1="282.6" y1="120.4" x2="248.0" y2="100.4" stroke="rgb(0,0,0)"  stroke-width="1.0"/>
<line x1="281.0" y1="111.2" x2="256.8" y2="97.1" stroke="rgb(0,0,0)"  stroke-width="1.0"/>
<line x1="248.0" y1="100.4" x2="248.0" y2="60.3" stroke="rgb(0,0,0)"  stroke-width="1.0"/>
<line x1="248.0" y1="60.3" x2="282.6" y2="40.3" stroke="rgb(0,0,0)"  stroke-width="1.0"/>
<line x1="256.8" y1="63.6" x2="281.0" y2="49.5" stroke="rgb(0,0,0)"  stroke-width="1.0"/>
<line x1="282.6" y1="40.3" x2="306.1" y2="53.8" stroke="rgb(0,0,0)"  stroke-width="1.0"/>
<line x1="213.3" y1="120.4" x2="213.3" y2="160.4" stroke="rgb(0,0,0)"  stroke-width="1.0"/>
<line x1="213.3" y1="160.4" x2="248.0" y2="180.5" stroke="rgb(0,0,0)"  stroke-width="1.0"/>
<line x1="248.0" y1="180.5" x2="282.6" y2="160.4" stroke="rgb(0,0,0)"  stroke-width="1.0"/>
<line x1="249.6" y1="171.2" x2="273.8" y2="157.2" stroke="rgb(0,0,0)"  stroke-width="1.0"/>
<line x1="282.6" y1="160.4" x2="282.6" y2="120.4" stroke="rgb(0,0,0)"  stroke-width="1.0"/>
<line x1="248.0" y1="100.4" x2="213.3" y2="120.4" stroke="rgb(0,0,0)"  stroke-width="1.0"/>
<line x1="144.1" y1="120.2" x2="143.8" y2="160.4" stroke="rgb(0,0,0)"  stroke-width="1.0"/>
<line x1="151.2" y1="126.3" x2="151.0" y2="154.4" stroke="rgb(0,0,0)"  stroke-width="1.0"/>
<line x1="143.8" y1="160.4" x2="178.4" y2="180.5" stroke="rgb(0,0,0)"  stroke-width="1.0"/>
<line x1="178.4" y1="180.5" x2="213.3" y2="160.4" stroke="rgb(0,0,0)"  stroke-width="1.0"/>
<line x1="180.0" y1="171.3" x2="204.5" y2="157.2" stroke="rgb(0,0,0)"  stroke-width="1.0"/>
<line x1="213.3" y1="120.4" x2="178.7" y2="100.3" stroke="rgb(0,0,0)"  stroke-width="1.0"/>
<line x1="178.7" y1="100.3" x2="144.1" y2="120.2" stroke="rgb(0,0,0)"  stroke-width="1.0"/>
<line x1="74.9" y1="160.1" x2="109.3" y2="180.1" stroke="rgb(0,0,0)"  stroke-width="1.0"/>
<line x1="83.7" y1="156.9" x2="107.7" y2="170.9" stroke="rgb(0,0,0)"  stroke-width="1.0"/>
<line x1="109.3" y1="180.1" x2="143.8" y2="160.4" stroke="rgb(0,0,0)"  stroke-width="1.0"/>
<line x1="144.1" y1="120.2" x2="109.7" y2="100.3" stroke="rgb(0,0,0)"  stroke-width="1.0"/>
<line x1="109.7" y1="100.3" x2="74.6" y2="120.2" stroke="rgb(0,0,0)"  stroke-width="1.0"/>
<line x1="74.6" y1="120.2" x2="74.9" y2="160.1" stroke="rgb(0,0,0)"  stroke-width="1.0"/>
<line x1="109.5" y1="60.1" x2="133.0" y2="46.9" stroke="rgb(0,0,0)"  stroke-width="1.0"/>
<line x1="155.6" y1="47.1" x2="178.8" y2="60.6" stroke="rgb(0,0,0)"  stroke-width="1.0"/>
<line x1="178.8" y1="60.6" x2="178.7" y2="100.3" stroke="rgb(0,0,0)"  stroke-width="1.0"/>
<line x1="171.6" y1="66.6" x2="171.5" y2="94.3" stroke="rgb(0,0,0)"  stroke-width="1.0"/>
<line x1="109.7" y1="100.3" x2="109.5" y2="60.1" stroke="rgb(0,0,0)"  stroke-width="1.0"/>
<line x1="116.9" y1="94.2" x2="116.7" y2="66.1" stroke="rgb(0,0,0)"  stroke-width="1.0"/>
<line x1="40.3" y1="60.5" x2="40.0" y2="100.1" stroke="rgb(0,0,0)"  stroke-width="1.0"/>
<line x1="40.0" y1="100.1" x2="74.6" y2="120.2" stroke="rgb(0,0,0)"  stroke-width="1.0"/>
<line x1="48.8" y1="96.9" x2="73.0" y2="110.9" stroke="rgb(0,0,0)"  stroke-width="1.0"/>
<line x1="109.5" y1="60.1" x2="74.9" y2="40.0" stroke="rgb(0,0,0)"  stroke-width="1.0"/>
<line x1="74.9" y1="40.0" x2="40.3" y2="60.5" stroke="rgb(0,0,0)"  stroke-width="1.0"/>
<line x1="73.4" y1="49.3" x2="49.1" y2="63.6" stroke="rgb(0,0,0)"  stroke-width="1.0"/>
<text x="311.327496" y="68.318354" fill="rgb(255,181,181)"  stroke="rgb(255,181,181)" stroke-width="1" font-size="16" >BH</text>
<text x="138.371347" y="48.584682" fill="rgb(12,12,255)"  stroke="rgb(12,12,255)" stroke-width="1" font-size="16" >N</text>
<text x="138.371347" y="32.584682" fill="rgb(12,12,255)"  stroke="rgb(12,12,255)" stroke-width="1" font-size="16" >H</text>
<text font-size="18.000000" fill ="black" font-family="sans-serif"
x="10.000000" y="20.000000" >BNPAH_000013_PAH47   C22_H14_N01_B01  -925.82812277     0.00400000     9.75490000  4807.05123177     7.66052375   208.45346907 20112.70235373    30.42437488     0.04848433     1.31932575   127.29558450    -4.68050000    -0.17200520  -107.93489497  -451.59960056    -3.10160000    -0.11398170   -71.52459571  -299.25890847     1.57890000     0.05802351    36.41029926   152.34069209</text>
<title>BNPAH_000013_PAH47   C22_H14_N01_B01  -925.82812277     0.00400000     9.75490000  4807.05123177     7.66052375   208.45346907 20112.70235373    30.42437488     0.04848433     1.31932575   127.29558450    -4.68050000    -0.17200520  -107.93489497  -451.59960056    -3.10160000    -0.11398170   -71.52459571  -299.25890847     1.57890000     0.05802351    36.41029926   152.34069209 - OBDepict</title>
</svg>
