<?xml version="1.0"?>
<svg xmlns="http://www.w3.org/2000/svg"
xmlns:xlink="http://www.w3.org/1999/xlink" xmlns:cml="http://www.xml-cml.org/schema" width="333.683" height="266.523" x="0" y="0" font-family="sans-serif" stroke="rgb(0,0,0)" stroke-width="1"  stroke-linecap="round">
<rect x="0%" y="0%" width="100%" height="100%" stroke-width="0" fill="rgb(255,255,255)"  />
<line x1="282.4" y1="156.1" x2="260.4" y2="168.8" stroke="rgb(0,0,0)"  stroke-width="1.0"/>
<line x1="260.4" y1="143.4" x2="260.4" y2="168.8" stroke="rgb(0,0,0)"  stroke-width="1.0"/>
<line x1="260.4" y1="168.8" x2="273.1" y2="190.9" stroke="rgb(0,0,0)"  stroke-width="1.0"/>
<line x1="260.4" y1="168.8" x2="234.9" y2="168.8" stroke="rgb(0,0,0)"  stroke-width="1.0"/>
<line x1="52.6" y1="113.1" x2="77.2" y2="119.7" stroke="rgb(0,0,0)"  stroke-width="1.0"/>
<line x1="59.1" y1="137.7" x2="77.2" y2="119.7" stroke="rgb(0,0,0)"  stroke-width="1.0"/>
<polygon points="188.603973 149.599589 186.684300 123.592511 194.658512 124.234341 " stroke-width="1.000000" fill="rgb(0,0,0)"  stroke="rgb(0,0,0)" />
<line x1="188.6" y1="149.6" x2="114.3" y2="129.7" stroke="rgb(0,0,0)"  stroke-width="1.0"/>
<line x1="188.6" y1="188.1" x2="166.6" y2="200.8" stroke="rgb(0,0,0)"  stroke-width="1.0"/>
<line x1="188.6" y1="188.1" x2="188.6" y2="213.5" stroke="rgb(0,0,0)"  stroke-width="1.0"/>
<polygon points="114.301987 129.690432 124.835258 153.546321 117.107851 155.616874 " stroke-width="1.000000" fill="rgb(0,0,0)"  stroke="rgb(0,0,0)" />
<line x1="124.9" y1="51.3" x2="137.7" y2="73.3" stroke="rgb(0,0,0)"  stroke-width="1.0"/>
<line x1="104.3" y1="92.5" x2="137.7" y2="73.3" stroke="rgb(0,0,0)"  stroke-width="1.0"/>
<polygon points="104.347408 92.539439 91.934163 69.605520 99.470542 66.921682 " stroke-width="1.000000" fill="rgb(0,0,0)"  stroke="rgb(0,0,0)" />
<line x1="196.4" y1="92.5" x2="171.0" y2="92.5" stroke="rgb(0,0,0)"  stroke-width="1.0"/>
<line x1="137.7" y1="73.3" x2="171.0" y2="92.5" stroke="rgb(0,0,0)"  stroke-width="1.0"/>
<line x1="137.7" y1="73.3" x2="150.4" y2="51.3" stroke="rgb(0,0,0)"  stroke-width="1.0"/>
<line x1="171.0" y1="92.5" x2="183.7" y2="70.5" stroke="rgb(0,0,0)"  stroke-width="1.0"/>
<line x1="171.0" y1="92.5" x2="171.0" y2="118.0" stroke="rgb(0,0,0)"  stroke-width="1.0"/>
<line x1="188.6" y1="149.6" x2="210.7" y2="162.3" stroke="rgb(0,0,0)"  stroke-width="1.0"/>
<line x1="210.7" y1="175.3" x2="188.6" y2="188.1" stroke="rgb(0,0,0)"  stroke-width="1.0"/>
<line x1="188.6" y1="188.1" x2="188.6" y2="149.6" stroke="rgb(0,0,0)"  stroke-width="1.0"/>
<line x1="104.3" y1="92.5" x2="77.2" y2="119.7" stroke="rgb(0,0,0)"  stroke-width="1.0"/>
<line x1="77.2" y1="119.7" x2="114.3" y2="129.7" stroke="rgb(0,0,0)"  stroke-width="1.0"/>
<line x1="114.3" y1="129.7" x2="104.3" y2="92.5" stroke="rgb(0,0,0)"  stroke-width="1.0"/>
<text x="215.912643" y="176.830358" fill="rgb(12,12,255)"  stroke="rgb(12,12,255)" stroke-width="1" font-size="16" >N</text>
<text x="184.195516" y="67.230769" fill="rgb(191,191,191)"  stroke="rgb(191,191,191)" stroke-width="1" font-size="16" >H</text>
<text x="203.426285" y="100.539439" fill="rgb(191,191,191)"  stroke="rgb(191,191,191)" stroke-width="1" font-size="16" >H</text>
<text x="164.964747" y="139.000977" fill="rgb(191,191,191)"  stroke="rgb(191,191,191)" stroke-width="1" font-size="16" >H</text>
<text x="112.425308" y="48.000000" fill="rgb(191,191,191)"  stroke="rgb(191,191,191)" stroke-width="1" font-size="16" >H</text>
<text x="150.886847" y="48.000000" fill="rgb(191,191,191)"  stroke="rgb(191,191,191)" stroke-width="1" font-size="16" >H</text>
<text x="85.444341" y="64.306846" fill="rgb(191,191,191)"  stroke="rgb(191,191,191)" stroke-width="1" font-size="16" >H</text>
<text x="43.954579" y="154.932268" fill="rgb(191,191,191)"  stroke="rgb(191,191,191)" stroke-width="1" font-size="16" >H</text>
<text x="34.000000" y="117.781275" fill="rgb(191,191,191)"  stroke="rgb(191,191,191)" stroke-width="1" font-size="16" >H</text>
<text x="118.256565" y="174.841425" fill="rgb(191,191,191)"  stroke="rgb(191,191,191)" stroke-width="1" font-size="16" >H</text>
<text x="185.689694" y="119.262032" fill="rgb(191,191,191)"  stroke="rgb(191,191,191)" stroke-width="1" font-size="16" >H</text>
<text x="149.295304" y="215.291897" fill="rgb(191,191,191)"  stroke="rgb(191,191,191)" stroke-width="1" font-size="16" >H</text>
<text x="182.603973" y="234.522666" fill="rgb(191,191,191)"  stroke="rgb(191,191,191)" stroke-width="1" font-size="16" >H</text>
<text x="273.604950" y="210.139028" fill="rgb(191,191,191)"  stroke="rgb(191,191,191)" stroke-width="1" font-size="16" >H</text>
<text x="287.682850" y="157.599589" fill="rgb(191,191,191)"  stroke="rgb(191,191,191)" stroke-width="1" font-size="16" >H</text>
<text x="254.374181" y="138.368820" fill="rgb(191,191,191)"  stroke="rgb(191,191,191)" stroke-width="1" font-size="16" >H</text>
<text font-size="18.000000" fill ="black" font-family="sans-serif"
x="10.000000" y="20.000000" ></text>
<title> - OBDepict</title>
</svg>
