<?xml version="1.0"?>
<svg xmlns="http://www.w3.org/2000/svg"
xmlns:xlink="http://www.w3.org/1999/xlink" xmlns:cml="http://www.xml-cml.org/schema" width="266.658" height="218.843" x="0" y="0" font-family="sans-serif" stroke="rgb(0,0,0)" stroke-width="1"  stroke-linecap="round">
<rect x="0%" y="0%" width="100%" height="100%" stroke-width="0" fill="rgb(255,255,255)"  />
<line x1="221.1" y1="138.7" x2="216.0" y2="128.0" stroke="rgb(0,0,0)"  stroke-width="1.0"/>
<line x1="141.2" y1="167.6" x2="153.7" y2="146.0" stroke="rgb(0,0,0)"  stroke-width="1.0"/>
<line x1="176.0" y1="52.6" x2="182.4" y2="76.6" stroke="rgb(0,0,0)"  stroke-width="1.0"/>
<line x1="166.1" y1="167.6" x2="153.7" y2="146.0" stroke="rgb(0,0,0)"  stroke-width="1.0"/>
<line x1="177.8" y1="112.8" x2="177.6" y2="114.4" stroke="rgb(0,0,0)"  stroke-width="1.0"/>
<line x1="181.9" y1="112.5" x2="181.6" y2="115.4" stroke="rgb(0,0,0)"  stroke-width="1.0"/>
<line x1="186.0" y1="112.2" x2="185.6" y2="116.3" stroke="rgb(0,0,0)"  stroke-width="1.0"/>
<line x1="190.1" y1="111.9" x2="189.6" y2="117.3" stroke="rgb(0,0,0)"  stroke-width="1.0"/>
<line x1="194.2" y1="111.6" x2="193.6" y2="118.3" stroke="rgb(0,0,0)"  stroke-width="1.0"/>
<line x1="198.3" y1="111.3" x2="197.6" y2="119.2" stroke="rgb(0,0,0)"  stroke-width="1.0"/>
<line x1="172.6" y1="113.2" x2="182.4" y2="76.6" stroke="rgb(0,0,0)"  stroke-width="1.0"/>
<line x1="182.4" y1="76.6" x2="158.4" y2="70.2" stroke="rgb(0,0,0)"  stroke-width="1.0"/>
<line x1="182.4" y1="76.6" x2="206.5" y2="70.2" stroke="rgb(0,0,0)"  stroke-width="1.0"/>
<line x1="46.5" y1="134.8" x2="58.9" y2="113.2" stroke="rgb(0,0,0)"  stroke-width="1.0"/>
<line x1="119.6" y1="114.0" x2="119.6" y2="112.4" stroke="rgb(0,0,0)"  stroke-width="1.0"/>
<line x1="107.5" y1="114.6" x2="107.5" y2="111.8" stroke="rgb(0,0,0)"  stroke-width="1.0"/>
<line x1="95.3" y1="115.3" x2="95.3" y2="111.1" stroke="rgb(0,0,0)"  stroke-width="1.0"/>
<line x1="83.2" y1="115.9" x2="83.2" y2="110.5" stroke="rgb(0,0,0)"  stroke-width="1.0"/>
<line x1="71.1" y1="116.6" x2="71.1" y2="109.8" stroke="rgb(0,0,0)"  stroke-width="1.0"/>
<line x1="58.9" y1="117.2" x2="58.9" y2="109.2" stroke="rgb(0,0,0)"  stroke-width="1.0"/>
<line x1="134.7" y1="113.2" x2="115.8" y2="80.4" stroke="rgb(0,0,0)"  stroke-width="1.0"/>
<line x1="56.3" y1="114.7" x2="43.9" y2="93.1" stroke="rgb(0,0,0)"  stroke-width="1.0"/>
<line x1="61.5" y1="111.7" x2="49.1" y2="90.1" stroke="rgb(0,0,0)"  stroke-width="1.0"/>
<line x1="94.2" y1="67.9" x2="115.8" y2="80.4" stroke="rgb(0,0,0)"  stroke-width="1.0"/>
<line x1="115.8" y1="80.4" x2="94.2" y2="92.8" stroke="rgb(0,0,0)"  stroke-width="1.0"/>
<line x1="115.8" y1="80.4" x2="128.2" y2="58.8" stroke="rgb(0,0,0)"  stroke-width="1.0"/>
<line x1="172.6" y1="113.2" x2="153.7" y2="146.0" stroke="rgb(0,0,0)"  stroke-width="1.0"/>
<line x1="153.7" y1="146.0" x2="134.7" y2="113.2" stroke="rgb(0,0,0)"  stroke-width="1.0"/>
<line x1="134.7" y1="113.2" x2="172.6" y2="113.2" stroke="rgb(0,0,0)"  stroke-width="1.0"/>
<text x="204.404161" y="124.247257" fill="rgb(255,12,12)"  stroke="rgb(255,12,12)" stroke-width="1" font-size="16" >O</text>
<text x="34.000000" y="88.389205" fill="rgb(255,12,12)"  stroke="rgb(255,12,12)" stroke-width="1" font-size="16" >O</text>
<text x="139.835954" y="74.795625" fill="rgb(191,191,191)"  stroke="rgb(191,191,191)" stroke-width="1" font-size="16" >H</text>
<text x="166.631579" y="48.000000" fill="rgb(191,191,191)"  stroke="rgb(191,191,191)" stroke-width="1" font-size="16" >H</text>
<text x="213.042964" y="74.795625" fill="rgb(191,191,191)"  stroke="rgb(191,191,191)" stroke-width="1" font-size="16" >H</text>
<text x="220.657521" y="158.479397" fill="rgb(191,191,191)"  stroke="rgb(191,191,191)" stroke-width="1" font-size="16" >H</text>
<text x="128.736842" y="186.842620" fill="rgb(191,191,191)"  stroke="rgb(191,191,191)" stroke-width="1" font-size="16" >H</text>
<text x="166.631579" y="186.842620" fill="rgb(191,191,191)"  stroke="rgb(191,191,191)" stroke-width="1" font-size="16" >H</text>
<text x="76.971669" y="69.441837" fill="rgb(191,191,191)"  stroke="rgb(191,191,191)" stroke-width="1" font-size="16" >H</text>
<text x="128.736842" y="55.571400" fill="rgb(191,191,191)"  stroke="rgb(191,191,191)" stroke-width="1" font-size="16" >H</text>
<text x="76.971669" y="107.336574" fill="rgb(191,191,191)"  stroke="rgb(191,191,191)" stroke-width="1" font-size="16" >H</text>
<text x="34.000000" y="154.024815" fill="rgb(191,191,191)"  stroke="rgb(191,191,191)" stroke-width="1" font-size="16" >H</text>
<text font-size="18.000000" fill ="black" font-family="sans-serif"
x="10.000000" y="20.000000" ></text>
<title> - OBDepict</title>
</svg>
