<?xml version="1.0"?>
<svg xmlns="http://www.w3.org/2000/svg"
xmlns:xlink="http://www.w3.org/1999/xlink" xmlns:cml="http://www.xml-cml.org/schema" width="266.442" height="240.642" x="0" y="0" font-family="sans-serif" stroke="rgb(0,0,0)" stroke-width="1"  stroke-linecap="round">
<rect x="0%" y="0%" width="100%" height="100%" stroke-width="0" fill="rgb(255,255,255)"  />
<line x1="204.0" y1="71.8" x2="179.5" y2="78.3" stroke="rgb(0,0,0)"  stroke-width="1.0"/>
<line x1="186.1" y1="53.9" x2="179.5" y2="78.3" stroke="rgb(0,0,0)"  stroke-width="1.0"/>
<line x1="80.9" y1="65.7" x2="102.8" y2="78.3" stroke="rgb(0,0,0)"  stroke-width="1.0"/>
<line x1="102.8" y1="78.3" x2="102.8" y2="53.0" stroke="rgb(0,0,0)"  stroke-width="1.0"/>
<line x1="102.8" y1="78.3" x2="141.2" y2="78.3" stroke="rgb(0,0,0)"  stroke-width="1.0"/>
<line x1="102.8" y1="78.3" x2="90.2" y2="100.3" stroke="rgb(0,0,0)"  stroke-width="1.0"/>
<line x1="140.4" y1="73.2" x2="142.0" y2="73.2" stroke="rgb(0,0,0)"  stroke-width="1.0"/>
<line x1="139.7" y1="69.1" x2="142.6" y2="69.1" stroke="rgb(0,0,0)"  stroke-width="1.0"/>
<line x1="139.1" y1="65.0" x2="143.2" y2="65.0" stroke="rgb(0,0,0)"  stroke-width="1.0"/>
<line x1="138.4" y1="60.9" x2="143.9" y2="60.9" stroke="rgb(0,0,0)"  stroke-width="1.0"/>
<line x1="137.8" y1="56.8" x2="144.5" y2="56.8" stroke="rgb(0,0,0)"  stroke-width="1.0"/>
<line x1="137.2" y1="52.6" x2="145.2" y2="52.6" stroke="rgb(0,0,0)"  stroke-width="1.0"/>
<line x1="184.7" y1="117.2" x2="184.2" y2="118.8" stroke="rgb(0,0,0)"  stroke-width="1.0"/>
<line x1="188.8" y1="117.7" x2="188.1" y2="120.5" stroke="rgb(0,0,0)"  stroke-width="1.0"/>
<line x1="192.9" y1="118.1" x2="191.9" y2="122.1" stroke="rgb(0,0,0)"  stroke-width="1.0"/>
<line x1="197.1" y1="118.6" x2="195.7" y2="123.8" stroke="rgb(0,0,0)"  stroke-width="1.0"/>
<line x1="201.2" y1="119.0" x2="199.5" y2="125.5" stroke="rgb(0,0,0)"  stroke-width="1.0"/>
<line x1="205.3" y1="119.5" x2="203.3" y2="127.2" stroke="rgb(0,0,0)"  stroke-width="1.0"/>
<line x1="179.5" y1="116.7" x2="186.1" y2="141.1" stroke="rgb(0,0,0)"  stroke-width="1.0"/>
<line x1="202.0" y1="157.1" x2="213.9" y2="160.3" stroke="rgb(0,0,0)"  stroke-width="1.0"/>
<line x1="49.2" y1="154.4" x2="67.1" y2="136.5" stroke="rgb(0,0,0)"  stroke-width="1.0"/>
<polygon points="141.160073 116.666667 68.141036 140.373163 66.070484 132.645757 " stroke-width="1.000000" fill="rgb(0,0,0)"  stroke="rgb(0,0,0)" />
<line x1="141.2" y1="116.7" x2="131.2" y2="153.7" stroke="rgb(0,0,0)"  stroke-width="1.0"/>
<line x1="137.8" y1="178.2" x2="131.2" y2="153.7" stroke="rgb(0,0,0)"  stroke-width="1.0"/>
<line x1="67.1" y1="136.5" x2="73.7" y2="161.0" stroke="rgb(0,0,0)"  stroke-width="1.0"/>
<line x1="67.1" y1="136.5" x2="49.2" y2="118.6" stroke="rgb(0,0,0)"  stroke-width="1.0"/>
<line x1="131.2" y1="153.7" x2="155.7" y2="160.3" stroke="rgb(0,0,0)"  stroke-width="1.0"/>
<line x1="131.2" y1="153.7" x2="106.8" y2="160.3" stroke="rgb(0,0,0)"  stroke-width="1.0"/>
<line x1="90.8" y1="176.2" x2="87.7" y2="188.1" stroke="rgb(0,0,0)"  stroke-width="1.0"/>
<line x1="141.2" y1="78.3" x2="179.5" y2="78.3" stroke="rgb(0,0,0)"  stroke-width="1.0"/>
<line x1="179.5" y1="78.3" x2="179.5" y2="116.7" stroke="rgb(0,0,0)"  stroke-width="1.0"/>
<line x1="179.5" y1="116.7" x2="141.2" y2="116.7" stroke="rgb(0,0,0)"  stroke-width="1.0"/>
<line x1="141.2" y1="116.7" x2="141.2" y2="78.3" stroke="rgb(0,0,0)"  stroke-width="1.0"/>
<text x="183.414803" y="161.693823" fill="rgb(255,12,12)"  stroke="rgb(255,12,12)" stroke-width="1" font-size="16" >O</text>
<text x="88.211520" y="171.615220" fill="rgb(255,12,12)"  stroke="rgb(255,12,12)" stroke-width="1" font-size="16" >O</text>
<text x="96.826740" y="48.000000" fill="rgb(191,191,191)"  stroke="rgb(191,191,191)" stroke-width="1" font-size="16" >H</text>
<text x="63.629099" y="67.166667" fill="rgb(191,191,191)"  stroke="rgb(191,191,191)" stroke-width="1" font-size="16" >H</text>
<text x="77.660073" y="119.530974" fill="rgb(191,191,191)"  stroke="rgb(191,191,191)" stroke-width="1" font-size="16" >H</text>
<text x="135.160073" y="48.000000" fill="rgb(191,191,191)"  stroke="rgb(191,191,191)" stroke-width="1" font-size="16" >H</text>
<text x="210.520563" y="76.411937" fill="rgb(191,191,191)"  stroke="rgb(191,191,191)" stroke-width="1" font-size="16" >H</text>
<text x="183.414803" y="49.306177" fill="rgb(191,191,191)"  stroke="rgb(191,191,191)" stroke-width="1" font-size="16" >H</text>
<text x="210.520563" y="134.588063" fill="rgb(191,191,191)"  stroke="rgb(191,191,191)" stroke-width="1" font-size="16" >H</text>
<text x="220.441960" y="171.615220" fill="rgb(191,191,191)"  stroke="rgb(191,191,191)" stroke-width="1" font-size="16" >H</text>
<text x="34.000000" y="171.615220" fill="rgb(191,191,191)"  stroke="rgb(191,191,191)" stroke-width="1" font-size="16" >H</text>
<text x="71.027157" y="181.536617" fill="rgb(191,191,191)"  stroke="rgb(191,191,191)" stroke-width="1" font-size="16" >H</text>
<text x="34.000000" y="117.403700" fill="rgb(191,191,191)"  stroke="rgb(191,191,191)" stroke-width="1" font-size="16" >H</text>
<text x="162.265833" y="171.615220" fill="rgb(191,191,191)"  stroke="rgb(191,191,191)" stroke-width="1" font-size="16" >H</text>
<text x="135.160073" y="198.720980" fill="rgb(191,191,191)"  stroke="rgb(191,191,191)" stroke-width="1" font-size="16" >H</text>
<text x="78.290123" y="208.642377" fill="rgb(191,191,191)"  stroke="rgb(191,191,191)" stroke-width="1" font-size="16" >H</text>
<text font-size="18.000000" fill ="black" font-family="sans-serif"
x="10.000000" y="20.000000" ></text>
<title> - OBDepict</title>
</svg>
