<?xml version="1.0"?>
<svg xmlns="http://www.w3.org/2000/svg"
xmlns:xlink="http://www.w3.org/1999/xlink" xmlns:cml="http://www.xml-cml.org/schema" width="266.447" height="219.468" x="0" y="0" font-family="sans-serif" stroke="rgb(0,0,0)" stroke-width="1"  stroke-linecap="round">
<rect x="0%" y="0%" width="100%" height="100%" stroke-width="0" fill="rgb(255,255,255)"  />
<line x1="213.9" y1="115.1" x2="188.5" y2="108.3" stroke="rgb(0,0,0)"  stroke-width="1.0"/>
<line x1="195.3" y1="133.6" x2="188.5" y2="108.3" stroke="rgb(0,0,0)"  stroke-width="1.0"/>
<line x1="130.7" y1="168.8" x2="145.8" y2="147.4" stroke="rgb(0,0,0)"  stroke-width="1.0"/>
<line x1="163.0" y1="131.6" x2="156.2" y2="106.2" stroke="rgb(0,0,0)"  stroke-width="1.0"/>
<line x1="168.8" y1="130.0" x2="162.0" y2="104.7" stroke="rgb(0,0,0)"  stroke-width="1.0"/>
<line x1="191.5" y1="64.6" x2="192.7" y2="65.7" stroke="rgb(0,0,0)"  stroke-width="1.0"/>
<line x1="193.8" y1="61.1" x2="196.0" y2="63.0" stroke="rgb(0,0,0)"  stroke-width="1.0"/>
<line x1="196.2" y1="57.5" x2="199.3" y2="60.3" stroke="rgb(0,0,0)"  stroke-width="1.0"/>
<line x1="198.6" y1="54.0" x2="202.6" y2="57.6" stroke="rgb(0,0,0)"  stroke-width="1.0"/>
<line x1="200.9" y1="50.4" x2="205.9" y2="55.0" stroke="rgb(0,0,0)"  stroke-width="1.0"/>
<line x1="203.3" y1="46.9" x2="209.2" y2="52.3" stroke="rgb(0,0,0)"  stroke-width="1.0"/>
<line x1="167.5" y1="68.2" x2="167.5" y2="69.8" stroke="rgb(0,0,0)"  stroke-width="1.0"/>
<line x1="171.7" y1="67.6" x2="171.7" y2="70.5" stroke="rgb(0,0,0)"  stroke-width="1.0"/>
<line x1="175.9" y1="67.0" x2="175.9" y2="71.1" stroke="rgb(0,0,0)"  stroke-width="1.0"/>
<line x1="180.1" y1="66.3" x2="180.1" y2="71.8" stroke="rgb(0,0,0)"  stroke-width="1.0"/>
<line x1="184.3" y1="65.7" x2="184.3" y2="72.4" stroke="rgb(0,0,0)"  stroke-width="1.0"/>
<line x1="188.5" y1="65.0" x2="188.5" y2="73.0" stroke="rgb(0,0,0)"  stroke-width="1.0"/>
<polygon points="149.305651 108.282699 149.799004 147.721926 141.830724 147.010228 " stroke-width="1.000000" fill="rgb(0,0,0)"  stroke="rgb(0,0,0)" />
<line x1="119.7" y1="145.0" x2="145.8" y2="147.4" stroke="rgb(0,0,0)"  stroke-width="1.0"/>
<line x1="145.8" y1="147.4" x2="167.3" y2="162.5" stroke="rgb(0,0,0)"  stroke-width="1.0"/>
<line x1="107.4" y1="88.3" x2="107.7" y2="86.7" stroke="rgb(0,0,0)"  stroke-width="1.0"/>
<line x1="101.1" y1="88.0" x2="101.6" y2="85.1" stroke="rgb(0,0,0)"  stroke-width="1.0"/>
<line x1="94.8" y1="87.7" x2="95.5" y2="83.6" stroke="rgb(0,0,0)"  stroke-width="1.0"/>
<line x1="88.5" y1="87.4" x2="89.3" y2="82.0" stroke="rgb(0,0,0)"  stroke-width="1.0"/>
<line x1="82.2" y1="87.1" x2="83.2" y2="80.4" stroke="rgb(0,0,0)"  stroke-width="1.0"/>
<line x1="75.9" y1="86.8" x2="77.1" y2="78.9" stroke="rgb(0,0,0)"  stroke-width="1.0"/>
<line x1="52.1" y1="92.4" x2="76.5" y2="82.8" stroke="rgb(0,0,0)"  stroke-width="1.0"/>
<line x1="76.5" y1="82.8" x2="72.6" y2="108.8" stroke="rgb(0,0,0)"  stroke-width="1.0"/>
<line x1="76.5" y1="82.8" x2="66.9" y2="58.4" stroke="rgb(0,0,0)"  stroke-width="1.0"/>
<line x1="149.3" y1="108.3" x2="115.3" y2="88.7" stroke="rgb(0,0,0)"  stroke-width="1.0"/>
<line x1="115.3" y1="88.7" x2="138.0" y2="75.5" stroke="rgb(0,0,0)"  stroke-width="1.0"/>
<line x1="149.3" y1="82.0" x2="149.3" y2="108.3" stroke="rgb(0,0,0)"  stroke-width="1.0"/>
<line x1="162.3" y1="69.0" x2="188.5" y2="69.0" stroke="rgb(0,0,0)"  stroke-width="1.0"/>
<line x1="188.5" y1="69.0" x2="159.1" y2="105.5" stroke="rgb(0,0,0)"  stroke-width="1.0"/>
<line x1="159.1" y1="105.5" x2="115.3" y2="88.7" stroke="rgb(0,0,0)"  stroke-width="1.0"/>
<line x1="149.3" y1="108.3" x2="188.5" y2="108.3" stroke="rgb(0,0,0)"  stroke-width="1.0"/>
<line x1="188.5" y1="108.3" x2="188.5" y2="69.0" stroke="rgb(0,0,0)"  stroke-width="1.0"/>
<text x="143.305651" y="77.043739" fill="rgb(12,12,255)"  stroke="rgb(12,12,255)" stroke-width="1" font-size="16" >N</text>
<text x="163.217147" y="151.354452" fill="rgb(255,12,12)"  stroke="rgb(255,12,12)" stroke-width="1" font-size="16" >O</text>
<text x="117.250066" y="187.467882" fill="rgb(191,191,191)"  stroke="rgb(191,191,191)" stroke-width="1" font-size="16" >H</text>
<text x="100.731487" y="151.875291" fill="rgb(191,191,191)"  stroke="rgb(191,191,191)" stroke-width="1" font-size="16" >H</text>
<text x="171.916669" y="177.930876" fill="rgb(191,191,191)"  stroke="rgb(191,191,191)" stroke-width="1" font-size="16" >H</text>
<text x="192.700402" y="154.184625" fill="rgb(191,191,191)"  stroke="rgb(191,191,191)" stroke-width="1" font-size="16" >H</text>
<text x="220.446537" y="126.438490" fill="rgb(191,191,191)"  stroke="rgb(191,191,191)" stroke-width="1" font-size="16" >H</text>
<text x="208.929403" y="48.000000" fill="rgb(191,191,191)"  stroke="rgb(191,191,191)" stroke-width="1" font-size="16" >H</text>
<text x="56.169993" y="54.310297" fill="rgb(191,191,191)"  stroke="rgb(191,191,191)" stroke-width="1" font-size="16" >H</text>
<text x="64.688315" y="129.634012" fill="rgb(191,191,191)"  stroke="rgb(191,191,191)" stroke-width="1" font-size="16" >H</text>
<text x="34.000000" y="105.181541" fill="rgb(191,191,191)"  stroke="rgb(191,191,191)" stroke-width="1" font-size="16" >H</text>
<text font-size="18.000000" fill ="black" font-family="sans-serif"
x="10.000000" y="20.000000" ></text>
<title> - OBDepict</title>
</svg>
