<?xml version="1.0"?>
<svg xmlns="http://www.w3.org/2000/svg"
xmlns:xlink="http://www.w3.org/1999/xlink" xmlns:cml="http://www.xml-cml.org/schema" width="236.564" height="262.65" x="0" y="0" font-family="sans-serif" stroke="rgb(0,0,0)" stroke-width="1"  stroke-linecap="round">
<rect x="0%" y="0%" width="100%" height="100%" stroke-width="0" fill="rgb(255,255,255)"  />
<line x1="185.0" y1="121.4" x2="160.9" y2="109.2" stroke="rgb(0,0,0)"  stroke-width="1.0"/>
<line x1="133.2" y1="209.7" x2="130.4" y2="182.9" stroke="rgb(0,0,0)"  stroke-width="1.0"/>
<line x1="147.5" y1="147.5" x2="146.5" y2="148.8" stroke="rgb(0,0,0)"  stroke-width="1.0"/>
<line x1="151.2" y1="149.7" x2="149.4" y2="152.0" stroke="rgb(0,0,0)"  stroke-width="1.0"/>
<line x1="155.0" y1="151.9" x2="152.4" y2="155.1" stroke="rgb(0,0,0)"  stroke-width="1.0"/>
<line x1="158.7" y1="154.0" x2="155.3" y2="158.3" stroke="rgb(0,0,0)"  stroke-width="1.0"/>
<line x1="162.5" y1="156.2" x2="158.3" y2="161.5" stroke="rgb(0,0,0)"  stroke-width="1.0"/>
<line x1="166.2" y1="158.4" x2="161.3" y2="164.6" stroke="rgb(0,0,0)"  stroke-width="1.0"/>
<line x1="160.9" y1="109.2" x2="146.2" y2="86.5" stroke="rgb(0,0,0)"  stroke-width="1.0"/>
<line x1="160.9" y1="109.2" x2="142.8" y2="144.8" stroke="rgb(0,0,0)"  stroke-width="1.0"/>
<line x1="160.9" y1="109.2" x2="183.6" y2="94.5" stroke="rgb(0,0,0)"  stroke-width="1.0"/>
<line x1="145.0" y1="64.1" x2="151.4" y2="51.6" stroke="rgb(0,0,0)"  stroke-width="1.0"/>
<line x1="130.4" y1="182.9" x2="155.1" y2="193.9" stroke="rgb(0,0,0)"  stroke-width="1.0"/>
<line x1="65.7" y1="193.9" x2="90.4" y2="182.9" stroke="rgb(0,0,0)"  stroke-width="1.0"/>
<line x1="90.4" y1="182.9" x2="87.6" y2="209.7" stroke="rgb(0,0,0)"  stroke-width="1.0"/>
<line x1="107.4" y1="121.3" x2="107.4" y2="94.3" stroke="rgb(0,0,0)"  stroke-width="1.0"/>
<line x1="113.4" y1="121.3" x2="113.4" y2="94.3" stroke="rgb(0,0,0)"  stroke-width="1.0"/>
<line x1="65.7" y1="140.8" x2="52.4" y2="136.5" stroke="rgb(0,0,0)"  stroke-width="1.0"/>
<line x1="142.8" y1="144.8" x2="130.4" y2="182.9" stroke="rgb(0,0,0)"  stroke-width="1.0"/>
<line x1="130.4" y1="182.9" x2="90.4" y2="182.9" stroke="rgb(0,0,0)"  stroke-width="1.0"/>
<line x1="90.4" y1="182.9" x2="82.1" y2="157.2" stroke="rgb(0,0,0)"  stroke-width="1.0"/>
<line x1="88.6" y1="137.2" x2="110.4" y2="121.3" stroke="rgb(0,0,0)"  stroke-width="1.0"/>
<line x1="110.4" y1="121.3" x2="142.8" y2="144.8" stroke="rgb(0,0,0)"  stroke-width="1.0"/>
<text x="133.137679" y="83.640261" fill="rgb(255,12,12)"  stroke="rgb(255,12,12)" stroke-width="1" font-size="16" >O</text>
<text x="72.042261" y="152.827345" fill="rgb(12,12,255)"  stroke="rgb(12,12,255)" stroke-width="1" font-size="16" >N</text>
<text x="104.402940" y="89.315935" fill="rgb(255,12,12)"  stroke="rgb(255,12,12)" stroke-width="1" font-size="16" >O</text>
<text x="151.297299" y="48.000000" fill="rgb(191,191,191)"  stroke="rgb(191,191,191)" stroke-width="1" font-size="16" >H</text>
<text x="190.563501" y="135.346704" fill="rgb(191,191,191)"  stroke="rgb(191,191,191)" stroke-width="1" font-size="16" >H</text>
<text x="188.470063" y="95.401522" fill="rgb(191,191,191)"  stroke="rgb(191,191,191)" stroke-width="1" font-size="16" >H</text>
<text x="168.078714" y="177.714388" fill="rgb(191,191,191)"  stroke="rgb(191,191,191)" stroke-width="1" font-size="16" >H</text>
<text x="128.584079" y="230.650481" fill="rgb(191,191,191)"  stroke="rgb(191,191,191)" stroke-width="1" font-size="16" >H</text>
<text x="160.944759" y="207.139071" fill="rgb(191,191,191)"  stroke="rgb(191,191,191)" stroke-width="1" font-size="16" >H</text>
<text x="47.861122" y="207.139071" fill="rgb(191,191,191)"  stroke="rgb(191,191,191)" stroke-width="1" font-size="16" >H</text>
<text x="80.221802" y="230.650481" fill="rgb(191,191,191)"  stroke="rgb(191,191,191)" stroke-width="1" font-size="16" >H</text>
<text x="34.000000" y="140.466665" fill="rgb(191,191,191)"  stroke="rgb(191,191,191)" stroke-width="1" font-size="16" >H</text>
<text font-size="18.000000" fill ="black" font-family="sans-serif"
x="10.000000" y="20.000000" ></text>
<title> - OBDepict</title>
</svg>
