<?xml version="1.0"?>
<svg xmlns="http://www.w3.org/2000/svg"
xmlns:xlink="http://www.w3.org/1999/xlink" xmlns:cml="http://www.xml-cml.org/schema" width="351.507" height="237.787" x="0" y="0" font-family="sans-serif" stroke="rgb(0,0,0)" stroke-width="1"  stroke-linecap="round">
<rect x="0%" y="0%" width="100%" height="100%" stroke-width="0" fill="rgb(255,255,255)"  />
<line x1="51.3" y1="146.4" x2="73.4" y2="159.2" stroke="rgb(0,0,0)"  stroke-width="1.0"/>
<line x1="131.3" y1="100.2" x2="131.3" y2="125.8" stroke="rgb(0,0,0)"  stroke-width="1.0"/>
<line x1="249.1" y1="130.6" x2="247.5" y2="131.0" stroke="rgb(0,0,0)"  stroke-width="1.0"/>
<line x1="250.8" y1="134.4" x2="248.0" y2="135.2" stroke="rgb(0,0,0)"  stroke-width="1.0"/>
<line x1="252.5" y1="138.3" x2="248.4" y2="139.3" stroke="rgb(0,0,0)"  stroke-width="1.0"/>
<line x1="254.2" y1="142.1" x2="248.9" y2="143.5" stroke="rgb(0,0,0)"  stroke-width="1.0"/>
<line x1="255.8" y1="145.9" x2="249.3" y2="147.6" stroke="rgb(0,0,0)"  stroke-width="1.0"/>
<line x1="257.5" y1="149.7" x2="249.8" y2="151.8" stroke="rgb(0,0,0)"  stroke-width="1.0"/>
<line x1="302.3" y1="153.9" x2="284.2" y2="135.8" stroke="rgb(0,0,0)"  stroke-width="1.0"/>
<line x1="134.1" y1="172.0" x2="112.0" y2="159.2" stroke="rgb(0,0,0)"  stroke-width="1.0"/>
<line x1="209.2" y1="131.0" x2="207.6" y2="131.0" stroke="rgb(0,0,0)"  stroke-width="1.0"/>
<line x1="209.8" y1="135.1" x2="207.0" y2="135.1" stroke="rgb(0,0,0)"  stroke-width="1.0"/>
<line x1="210.5" y1="139.2" x2="206.3" y2="139.2" stroke="rgb(0,0,0)"  stroke-width="1.0"/>
<line x1="211.1" y1="143.4" x2="205.7" y2="143.4" stroke="rgb(0,0,0)"  stroke-width="1.0"/>
<line x1="211.8" y1="147.5" x2="205.0" y2="147.5" stroke="rgb(0,0,0)"  stroke-width="1.0"/>
<line x1="212.4" y1="151.7" x2="204.4" y2="151.7" stroke="rgb(0,0,0)"  stroke-width="1.0"/>
<line x1="73.4" y1="159.2" x2="73.4" y2="133.6" stroke="rgb(0,0,0)"  stroke-width="1.0"/>
<line x1="73.4" y1="159.2" x2="112.0" y2="159.2" stroke="rgb(0,0,0)"  stroke-width="1.0"/>
<line x1="73.4" y1="159.2" x2="60.6" y2="181.4" stroke="rgb(0,0,0)"  stroke-width="1.0"/>
<line x1="131.3" y1="125.8" x2="112.0" y2="159.2" stroke="rgb(0,0,0)"  stroke-width="1.0"/>
<line x1="131.3" y1="125.8" x2="208.4" y2="125.8" stroke="rgb(0,0,0)"  stroke-width="1.0"/>
<line x1="131.3" y1="125.8" x2="109.1" y2="113.0" stroke="rgb(0,0,0)"  stroke-width="1.0"/>
<line x1="247.0" y1="125.8" x2="284.2" y2="135.8" stroke="rgb(0,0,0)"  stroke-width="1.0"/>
<line x1="112.0" y1="159.2" x2="112.0" y2="184.8" stroke="rgb(0,0,0)"  stroke-width="1.0"/>
<line x1="284.2" y1="135.8" x2="277.6" y2="160.5" stroke="rgb(0,0,0)"  stroke-width="1.0"/>
<line x1="284.2" y1="135.8" x2="302.3" y2="117.7" stroke="rgb(0,0,0)"  stroke-width="1.0"/>
<line x1="253.6" y1="62.5" x2="247.0" y2="87.2" stroke="rgb(0,0,0)"  stroke-width="1.0"/>
<line x1="247.0" y1="87.2" x2="271.7" y2="80.6" stroke="rgb(0,0,0)"  stroke-width="1.0"/>
<line x1="206.3" y1="82.5" x2="207.8" y2="82.0" stroke="rgb(0,0,0)"  stroke-width="1.0"/>
<line x1="204.6" y1="78.6" x2="207.4" y2="77.9" stroke="rgb(0,0,0)"  stroke-width="1.0"/>
<line x1="202.9" y1="74.8" x2="206.9" y2="73.7" stroke="rgb(0,0,0)"  stroke-width="1.0"/>
<line x1="201.2" y1="71.0" x2="206.5" y2="69.6" stroke="rgb(0,0,0)"  stroke-width="1.0"/>
<line x1="199.5" y1="67.1" x2="206.0" y2="65.4" stroke="rgb(0,0,0)"  stroke-width="1.0"/>
<line x1="197.9" y1="63.3" x2="205.6" y2="61.2" stroke="rgb(0,0,0)"  stroke-width="1.0"/>
<line x1="208.4" y1="87.2" x2="171.1" y2="77.3" stroke="rgb(0,0,0)"  stroke-width="1.0"/>
<line x1="153.1" y1="59.2" x2="171.1" y2="77.3" stroke="rgb(0,0,0)"  stroke-width="1.0"/>
<line x1="171.1" y1="77.3" x2="177.8" y2="52.6" stroke="rgb(0,0,0)"  stroke-width="1.0"/>
<line x1="171.1" y1="77.3" x2="153.1" y2="95.3" stroke="rgb(0,0,0)"  stroke-width="1.0"/>
<line x1="208.4" y1="125.8" x2="247.0" y2="125.8" stroke="rgb(0,0,0)"  stroke-width="1.0"/>
<line x1="247.0" y1="125.8" x2="247.0" y2="87.2" stroke="rgb(0,0,0)"  stroke-width="1.0"/>
<line x1="247.0" y1="87.2" x2="208.4" y2="87.2" stroke="rgb(0,0,0)"  stroke-width="1.0"/>
<line x1="208.4" y1="87.2" x2="208.4" y2="125.8" stroke="rgb(0,0,0)"  stroke-width="1.0"/>
<text x="67.403837" y="128.643996" fill="rgb(191,191,191)"  stroke="rgb(191,191,191)" stroke-width="1" font-size="16" >H</text>
<text x="34.000000" y="147.929711" fill="rgb(191,191,191)"  stroke="rgb(191,191,191)" stroke-width="1" font-size="16" >H</text>
<text x="48.118123" y="200.619262" fill="rgb(191,191,191)"  stroke="rgb(191,191,191)" stroke-width="1" font-size="16" >H</text>
<text x="139.379103" y="186.501139" fill="rgb(191,191,191)"  stroke="rgb(191,191,191)" stroke-width="1" font-size="16" >H</text>
<text x="105.975266" y="205.786853" fill="rgb(191,191,191)"  stroke="rgb(191,191,191)" stroke-width="1" font-size="16" >H</text>
<text x="91.857143" y="114.525874" fill="rgb(191,191,191)"  stroke="rgb(191,191,191)" stroke-width="1" font-size="16" >H</text>
<text x="125.260980" y="95.240159" fill="rgb(191,191,191)"  stroke="rgb(191,191,191)" stroke-width="1" font-size="16" >H</text>
<text x="202.403837" y="172.383016" fill="rgb(191,191,191)"  stroke="rgb(191,191,191)" stroke-width="1" font-size="16" >H</text>
<text x="192.420817" y="57.983020" fill="rgb(191,191,191)"  stroke="rgb(191,191,191)" stroke-width="1" font-size="16" >H</text>
<text x="137.872579" y="57.983020" fill="rgb(191,191,191)"  stroke="rgb(191,191,191)" stroke-width="1" font-size="16" >H</text>
<text x="137.872579" y="112.531258" fill="rgb(191,191,191)"  stroke="rgb(191,191,191)" stroke-width="1" font-size="16" >H</text>
<text x="175.129718" y="48.000000" fill="rgb(191,191,191)"  stroke="rgb(191,191,191)" stroke-width="1" font-size="16" >H</text>
<text x="250.958286" y="57.983020" fill="rgb(191,191,191)"  stroke="rgb(191,191,191)" stroke-width="1" font-size="16" >H</text>
<text x="278.232405" y="85.257139" fill="rgb(191,191,191)"  stroke="rgb(191,191,191)" stroke-width="1" font-size="16" >H</text>
<text x="250.958286" y="171.068727" fill="rgb(191,191,191)"  stroke="rgb(191,191,191)" stroke-width="1" font-size="16" >H</text>
<text x="305.506523" y="116.520490" fill="rgb(191,191,191)"  stroke="rgb(191,191,191)" stroke-width="1" font-size="16" >H</text>
<text x="305.506523" y="171.068727" fill="rgb(191,191,191)"  stroke="rgb(191,191,191)" stroke-width="1" font-size="16" >H</text>
<text x="268.249384" y="181.051747" fill="rgb(191,191,191)"  stroke="rgb(191,191,191)" stroke-width="1" font-size="16" >H</text>
<text font-size="18.000000" fill ="black" font-family="sans-serif"
x="10.000000" y="20.000000" ></text>
<title> - OBDepict</title>
</svg>
