<?xml version="1.0"?>
<svg xmlns="http://www.w3.org/2000/svg"
xmlns:xlink="http://www.w3.org/1999/xlink" xmlns:cml="http://www.xml-cml.org/schema" width="271.915" height="255.047" x="0" y="0" font-family="sans-serif" stroke="rgb(0,0,0)" stroke-width="1"  stroke-linecap="round">
<rect x="0%" y="0%" width="100%" height="100%" stroke-width="0" fill="rgb(255,255,255)"  />
<line x1="212.4" y1="166.5" x2="193.3" y2="185.6" stroke="rgb(0,0,0)"  stroke-width="1.0"/>
<line x1="219.4" y1="192.5" x2="193.3" y2="185.6" stroke="rgb(0,0,0)"  stroke-width="1.0"/>
<line x1="67.0" y1="155.2" x2="53.0" y2="155.2" stroke="rgb(0,0,0)"  stroke-width="1.0"/>
<line x1="162.6" y1="176.5" x2="162.2" y2="178.0" stroke="rgb(0,0,0)"  stroke-width="1.0"/>
<line x1="168.9" y1="177.5" x2="168.2" y2="180.3" stroke="rgb(0,0,0)"  stroke-width="1.0"/>
<line x1="175.3" y1="178.6" x2="174.2" y2="182.6" stroke="rgb(0,0,0)"  stroke-width="1.0"/>
<line x1="181.6" y1="179.6" x2="180.2" y2="184.9" stroke="rgb(0,0,0)"  stroke-width="1.0"/>
<line x1="188.0" y1="180.7" x2="186.2" y2="187.1" stroke="rgb(0,0,0)"  stroke-width="1.0"/>
<line x1="194.3" y1="181.7" x2="192.2" y2="189.4" stroke="rgb(0,0,0)"  stroke-width="1.0"/>
<line x1="152.5" y1="133.1" x2="171.6" y2="114.0" stroke="rgb(0,0,0)"  stroke-width="1.0"/>
<line x1="156.8" y1="137.3" x2="175.9" y2="118.2" stroke="rgb(0,0,0)"  stroke-width="1.0"/>
<line x1="179.6" y1="94.4" x2="175.9" y2="80.8" stroke="rgb(0,0,0)"  stroke-width="1.0"/>
<polygon points="114.641016 135.205576 108.272688 108.867687 116.240968 108.155989 " stroke-width="1.000000" fill="rgb(0,0,0)"  stroke="rgb(0,0,0)" />
<polygon points="114.641016 175.205576 116.240968 202.255163 108.272688 201.543464 " stroke-width="1.000000" fill="rgb(0,0,0)"  stroke="rgb(0,0,0)" />
<line x1="181.8" y1="59.1" x2="191.7" y2="49.2" stroke="rgb(0,0,0)"  stroke-width="1.0"/>
<line x1="114.6" y1="135.2" x2="91.3" y2="148.7" stroke="rgb(0,0,0)"  stroke-width="1.0"/>
<line x1="91.3" y1="161.7" x2="114.6" y2="175.2" stroke="rgb(0,0,0)"  stroke-width="1.0"/>
<line x1="114.6" y1="175.2" x2="114.6" y2="135.2" stroke="rgb(0,0,0)"  stroke-width="1.0"/>
<line x1="154.6" y1="175.2" x2="193.3" y2="185.6" stroke="rgb(0,0,0)"  stroke-width="1.0"/>
<line x1="193.3" y1="185.6" x2="174.2" y2="204.7" stroke="rgb(0,0,0)"  stroke-width="1.0"/>
<line x1="161.6" y1="201.3" x2="154.6" y2="175.2" stroke="rgb(0,0,0)"  stroke-width="1.0"/>
<line x1="154.6" y1="175.2" x2="154.6" y2="135.2" stroke="rgb(0,0,0)"  stroke-width="1.0"/>
<line x1="154.6" y1="135.2" x2="114.6" y2="135.2" stroke="rgb(0,0,0)"  stroke-width="1.0"/>
<line x1="114.6" y1="175.2" x2="154.6" y2="175.2" stroke="rgb(0,0,0)"  stroke-width="1.0"/>
<text x="166.572526" y="76.284271" fill="rgb(255,12,12)"  stroke="rgb(255,12,12)" stroke-width="1" font-size="16" >O</text>
<text x="176.925287" y="114.921304" fill="rgb(12,12,255)"  stroke="rgb(12,12,255)" stroke-width="1" font-size="16" >N</text>
<text x="74.000000" y="163.205576" fill="rgb(12,12,255)"  stroke="rgb(12,12,255)" stroke-width="1" font-size="16" >N</text>
<text x="158.993778" y="221.842609" fill="rgb(255,12,12)"  stroke="rgb(255,12,12)" stroke-width="1" font-size="16" >O</text>
<text x="194.856797" y="48.000000" fill="rgb(191,191,191)"  stroke="rgb(191,191,191)" stroke-width="1" font-size="16" >H</text>
<text x="105.082526" y="103.364176" fill="rgb(191,191,191)"  stroke="rgb(191,191,191)" stroke-width="1" font-size="16" >H</text>
<text x="34.000000" y="163.205576" fill="rgb(191,191,191)"  stroke="rgb(191,191,191)" stroke-width="1" font-size="16" >H</text>
<text x="105.082526" y="223.046975" fill="rgb(191,191,191)"  stroke="rgb(191,191,191)" stroke-width="1" font-size="16" >H</text>
<text x="225.915082" y="203.911099" fill="rgb(191,191,191)"  stroke="rgb(191,191,191)" stroke-width="1" font-size="16" >H</text>
<text x="215.562320" y="165.274066" fill="rgb(191,191,191)"  stroke="rgb(191,191,191)" stroke-width="1" font-size="16" >H</text>
<text font-size="18.000000" fill ="black" font-family="sans-serif"
x="10.000000" y="20.000000" ></text>
<title> - OBDepict</title>
</svg>
