<?xml version="1.0"?>
<svg xmlns="http://www.w3.org/2000/svg"
xmlns:xlink="http://www.w3.org/1999/xlink" xmlns:cml="http://www.xml-cml.org/schema" width="303.631" height="254.84" x="0" y="0" font-family="sans-serif" stroke="rgb(0,0,0)" stroke-width="1"  stroke-linecap="round">
<rect x="0%" y="0%" width="100%" height="100%" stroke-width="0" fill="rgb(255,255,255)"  />
<line x1="95.5" y1="203.6" x2="109.0" y2="180.2" stroke="rgb(0,0,0)"  stroke-width="1.0"/>
<line x1="122.5" y1="203.6" x2="109.0" y2="180.2" stroke="rgb(0,0,0)"  stroke-width="1.0"/>
<line x1="113.9" y1="52.6" x2="106.9" y2="78.6" stroke="rgb(0,0,0)"  stroke-width="1.0"/>
<line x1="202.5" y1="174.3" x2="189.0" y2="150.9" stroke="rgb(0,0,0)"  stroke-width="1.0"/>
<line x1="142.5" y1="122.2" x2="129.0" y2="145.6" stroke="rgb(0,0,0)"  stroke-width="1.0"/>
<line x1="162.0" y1="110.9" x2="189.0" y2="110.9" stroke="rgb(0,0,0)"  stroke-width="1.0"/>
<line x1="52.6" y1="113.9" x2="78.6" y2="106.9" stroke="rgb(0,0,0)"  stroke-width="1.0"/>
<polygon points="128.989795 145.558337 155.789795 141.558337 155.789795 149.558337 " stroke-width="1.000000" fill="rgb(0,0,0)"  stroke="rgb(0,0,0)" />
<line x1="106.9" y1="78.6" x2="87.8" y2="59.5" stroke="rgb(0,0,0)"  stroke-width="1.0"/>
<line x1="106.9" y1="78.6" x2="78.6" y2="106.9" stroke="rgb(0,0,0)"  stroke-width="1.0"/>
<line x1="106.9" y1="78.6" x2="133.0" y2="85.6" stroke="rgb(0,0,0)"  stroke-width="1.0"/>
<line x1="216.0" y1="150.9" x2="189.0" y2="150.9" stroke="rgb(0,0,0)"  stroke-width="1.0"/>
<line x1="89.0" y1="145.6" x2="78.6" y2="106.9" stroke="rgb(0,0,0)"  stroke-width="1.0"/>
<polygon points="88.989795 145.558337 62.597100 151.695574 61.955270 143.721362 " stroke-width="1.000000" fill="rgb(0,0,0)"  stroke="rgb(0,0,0)" />
<line x1="189.0" y1="150.9" x2="189.0" y2="110.9" stroke="rgb(0,0,0)"  stroke-width="1.0"/>
<line x1="189.0" y1="150.9" x2="165.6" y2="164.4" stroke="rgb(0,0,0)"  stroke-width="1.0"/>
<line x1="78.6" y1="106.9" x2="59.5" y2="87.8" stroke="rgb(0,0,0)"  stroke-width="1.0"/>
<line x1="189.0" y1="110.9" x2="189.0" y2="83.9" stroke="rgb(0,0,0)"  stroke-width="1.0"/>
<line x1="189.0" y1="110.9" x2="229.0" y2="110.9" stroke="rgb(0,0,0)"  stroke-width="1.0"/>
<line x1="252.4" y1="97.4" x2="229.0" y2="110.9" stroke="rgb(0,0,0)"  stroke-width="1.0"/>
<line x1="229.0" y1="110.9" x2="229.0" y2="83.9" stroke="rgb(0,0,0)"  stroke-width="1.0"/>
<line x1="229.0" y1="110.9" x2="242.5" y2="134.3" stroke="rgb(0,0,0)"  stroke-width="1.0"/>
<line x1="89.0" y1="145.6" x2="109.0" y2="180.2" stroke="rgb(0,0,0)"  stroke-width="1.0"/>
<line x1="109.0" y1="180.2" x2="129.0" y2="145.6" stroke="rgb(0,0,0)"  stroke-width="1.0"/>
<line x1="129.0" y1="145.6" x2="89.0" y2="145.6" stroke="rgb(0,0,0)"  stroke-width="1.0"/>
<text x="142.989795" y="118.917321" fill="rgb(255,12,12)"  stroke="rgb(255,12,12)" stroke-width="1" font-size="16" >O</text>
<text x="72.637033" y="58.352762" fill="rgb(191,191,191)"  stroke="rgb(191,191,191)" stroke-width="1" font-size="16" >H</text>
<text x="111.274066" y="48.000000" fill="rgb(191,191,191)"  stroke="rgb(191,191,191)" stroke-width="1" font-size="16" >H</text>
<text x="139.558337" y="96.989795" fill="rgb(191,191,191)"  stroke="rgb(191,191,191)" stroke-width="1" font-size="16" >H</text>
<text x="34.000000" y="125.274066" fill="rgb(191,191,191)"  stroke="rgb(191,191,191)" stroke-width="1" font-size="16" >H</text>
<text x="44.352762" y="86.637033" fill="rgb(191,191,191)"  stroke="rgb(191,191,191)" stroke-width="1" font-size="16" >H</text>
<text x="43.118736" y="156.767487" fill="rgb(191,191,191)"  stroke="rgb(191,191,191)" stroke-width="1" font-size="16" >H</text>
<text x="122.989795" y="222.840370" fill="rgb(191,191,191)"  stroke="rgb(191,191,191)" stroke-width="1" font-size="16" >H</text>
<text x="82.989795" y="222.840370" fill="rgb(191,191,191)"  stroke="rgb(191,191,191)" stroke-width="1" font-size="16" >H</text>
<text x="162.989795" y="153.558337" fill="rgb(191,191,191)"  stroke="rgb(191,191,191)" stroke-width="1" font-size="16" >H</text>
<text x="182.989795" y="78.917321" fill="rgb(191,191,191)"  stroke="rgb(191,191,191)" stroke-width="1" font-size="16" >H</text>
<text x="222.989795" y="158.917321" fill="rgb(191,191,191)"  stroke="rgb(191,191,191)" stroke-width="1" font-size="16" >H</text>
<text x="148.348779" y="178.917321" fill="rgb(191,191,191)"  stroke="rgb(191,191,191)" stroke-width="1" font-size="16" >H</text>
<text x="202.989795" y="193.558337" fill="rgb(191,191,191)"  stroke="rgb(191,191,191)" stroke-width="1" font-size="16" >H</text>
<text x="242.989795" y="153.558337" fill="rgb(191,191,191)"  stroke="rgb(191,191,191)" stroke-width="1" font-size="16" >H</text>
<text x="257.630811" y="98.917321" fill="rgb(191,191,191)"  stroke="rgb(191,191,191)" stroke-width="1" font-size="16" >H</text>
<text x="222.989795" y="78.917321" fill="rgb(191,191,191)"  stroke="rgb(191,191,191)" stroke-width="1" font-size="16" >H</text>
<text font-size="18.000000" fill ="black" font-family="sans-serif"
x="10.000000" y="20.000000" ></text>
<title> - OBDepict</title>
</svg>
