<?xml version="1.0"?>
<svg xmlns="http://www.w3.org/2000/svg"
xmlns:xlink="http://www.w3.org/1999/xlink" xmlns:cml="http://www.xml-cml.org/schema" width="317.633" height="219.13" x="0" y="0" font-family="sans-serif" stroke="rgb(0,0,0)" stroke-width="1"  stroke-linecap="round">
<rect x="0%" y="0%" width="100%" height="100%" stroke-width="0" fill="rgb(255,255,255)"  />
<line x1="265.1" y1="150.0" x2="244.0" y2="144.3" stroke="rgb(0,0,0)"  stroke-width="1.0"/>
<line x1="249.7" y1="165.4" x2="244.0" y2="144.3" stroke="rgb(0,0,0)"  stroke-width="1.0"/>
<line x1="51.3" y1="155.2" x2="70.1" y2="144.3" stroke="rgb(0,0,0)"  stroke-width="1.0"/>
<line x1="153.4" y1="150.0" x2="174.5" y2="144.3" stroke="rgb(0,0,0)"  stroke-width="1.0"/>
<line x1="70.1" y1="166.1" x2="70.1" y2="144.3" stroke="rgb(0,0,0)"  stroke-width="1.0"/>
<line x1="181.4" y1="145.1" x2="181.4" y2="143.5" stroke="rgb(0,0,0)"  stroke-width="1.0"/>
<line x1="159.2" y1="145.8" x2="159.2" y2="142.9" stroke="rgb(0,0,0)"  stroke-width="1.0"/>
<line x1="136.9" y1="146.4" x2="136.9" y2="142.3" stroke="rgb(0,0,0)"  stroke-width="1.0"/>
<line x1="114.6" y1="147.1" x2="114.6" y2="141.6" stroke="rgb(0,0,0)"  stroke-width="1.0"/>
<line x1="92.4" y1="147.7" x2="92.4" y2="141.0" stroke="rgb(0,0,0)"  stroke-width="1.0"/>
<line x1="70.1" y1="148.3" x2="70.1" y2="140.3" stroke="rgb(0,0,0)"  stroke-width="1.0"/>
<line x1="70.1" y1="144.3" x2="59.2" y2="125.5" stroke="rgb(0,0,0)"  stroke-width="1.0"/>
<line x1="253.2" y1="100.4" x2="259.4" y2="94.2" stroke="rgb(0,0,0)"  stroke-width="1.0"/>
<line x1="174.5" y1="144.3" x2="168.8" y2="165.4" stroke="rgb(0,0,0)"  stroke-width="1.0"/>
<line x1="208.5" y1="102.6" x2="210.1" y2="102.6" stroke="rgb(0,0,0)"  stroke-width="1.0"/>
<line x1="207.8" y1="97.0" x2="210.7" y2="97.0" stroke="rgb(0,0,0)"  stroke-width="1.0"/>
<line x1="207.2" y1="91.5" x2="211.3" y2="91.5" stroke="rgb(0,0,0)"  stroke-width="1.0"/>
<line x1="206.5" y1="85.9" x2="212.0" y2="85.9" stroke="rgb(0,0,0)"  stroke-width="1.0"/>
<line x1="205.9" y1="80.3" x2="212.6" y2="80.3" stroke="rgb(0,0,0)"  stroke-width="1.0"/>
<line x1="205.3" y1="74.8" x2="213.3" y2="74.8" stroke="rgb(0,0,0)"  stroke-width="1.0"/>
<line x1="174.5" y1="109.6" x2="168.8" y2="88.5" stroke="rgb(0,0,0)"  stroke-width="1.0"/>
<line x1="174.5" y1="109.6" x2="153.4" y2="103.9" stroke="rgb(0,0,0)"  stroke-width="1.0"/>
<line x1="209.3" y1="74.8" x2="209.3" y2="53.0" stroke="rgb(0,0,0)"  stroke-width="1.0"/>
<line x1="205.1" y1="74.8" x2="205.1" y2="53.0" stroke="rgb(0,0,0)"  stroke-width="1.0"/>
<line x1="213.5" y1="74.8" x2="213.5" y2="53.0" stroke="rgb(0,0,0)"  stroke-width="1.0"/>
<line x1="209.3" y1="144.3" x2="244.0" y2="144.3" stroke="rgb(0,0,0)"  stroke-width="1.0"/>
<line x1="244.0" y1="144.3" x2="244.0" y2="122.6" stroke="rgb(0,0,0)"  stroke-width="1.0"/>
<line x1="231.0" y1="109.6" x2="209.3" y2="109.6" stroke="rgb(0,0,0)"  stroke-width="1.0"/>
<line x1="209.3" y1="109.6" x2="209.3" y2="144.3" stroke="rgb(0,0,0)"  stroke-width="1.0"/>
<line x1="174.5" y1="109.6" x2="174.5" y2="144.3" stroke="rgb(0,0,0)"  stroke-width="1.0"/>
<line x1="174.5" y1="144.3" x2="209.3" y2="144.3" stroke="rgb(0,0,0)"  stroke-width="1.0"/>
<line x1="209.3" y1="109.6" x2="174.5" y2="109.6" stroke="rgb(0,0,0)"  stroke-width="1.0"/>
<text x="238.035666" y="117.565217" fill="rgb(12,12,255)"  stroke="rgb(12,12,255)" stroke-width="1" font-size="16" >N</text>
<text x="203.253058" y="48.000000" fill="rgb(12,12,255)"  stroke="rgb(12,12,255)" stroke-width="1" font-size="16" >N</text>
<text x="64.122623" y="187.130435" fill="rgb(191,191,191)"  stroke="rgb(191,191,191)" stroke-width="1" font-size="16" >H</text>
<text x="34.000000" y="169.739130" fill="rgb(191,191,191)"  stroke="rgb(191,191,191)" stroke-width="1" font-size="16" >H</text>
<text x="46.731318" y="122.225203" fill="rgb(191,191,191)"  stroke="rgb(191,191,191)" stroke-width="1" font-size="16" >H</text>
<text x="159.468047" y="185.945246" fill="rgb(191,191,191)"  stroke="rgb(191,191,191)" stroke-width="1" font-size="16" >H</text>
<text x="134.873029" y="161.350228" fill="rgb(191,191,191)"  stroke="rgb(191,191,191)" stroke-width="1" font-size="16" >H</text>
<text x="134.873029" y="108.562816" fill="rgb(191,191,191)"  stroke="rgb(191,191,191)" stroke-width="1" font-size="16" >H</text>
<text x="159.468047" y="83.967797" fill="rgb(191,191,191)"  stroke="rgb(191,191,191)" stroke-width="1" font-size="16" >H</text>
<text x="262.630685" y="92.970199" fill="rgb(191,191,191)"  stroke="rgb(191,191,191)" stroke-width="1" font-size="16" >H</text>
<text x="271.633086" y="161.350228" fill="rgb(191,191,191)"  stroke="rgb(191,191,191)" stroke-width="1" font-size="16" >H</text>
<text x="247.038068" y="185.945246" fill="rgb(191,191,191)"  stroke="rgb(191,191,191)" stroke-width="1" font-size="16" >H</text>
<text font-size="18.000000" fill ="black" font-family="sans-serif"
x="10.000000" y="20.000000" ></text>
<title> - OBDepict</title>
</svg>
