<?xml version="1.0"?>
<svg xmlns="http://www.w3.org/2000/svg"
xmlns:xlink="http://www.w3.org/1999/xlink" xmlns:cml="http://www.xml-cml.org/schema" width="250.532" height="261.554" x="0" y="0" font-family="sans-serif" stroke="rgb(0,0,0)" stroke-width="1"  stroke-linecap="round">
<rect x="0%" y="0%" width="100%" height="100%" stroke-width="0" fill="rgb(255,255,255)"  />
<line x1="198.9" y1="151.1" x2="180.8" y2="171.2" stroke="rgb(0,0,0)"  stroke-width="1.0"/>
<line x1="180.8" y1="171.2" x2="155.1" y2="179.5" stroke="rgb(0,0,0)"  stroke-width="1.0"/>
<line x1="180.8" y1="171.2" x2="172.5" y2="145.5" stroke="rgb(0,0,0)"  stroke-width="1.0"/>
<line x1="180.8" y1="171.2" x2="200.9" y2="189.2" stroke="rgb(0,0,0)"  stroke-width="1.0"/>
<line x1="78.0" y1="183.5" x2="52.4" y2="175.2" stroke="rgb(0,0,0)"  stroke-width="1.0"/>
<line x1="110.4" y1="160.0" x2="110.4" y2="120.0" stroke="rgb(0,0,0)"  stroke-width="1.0"/>
<line x1="110.4" y1="120.0" x2="110.4" y2="80.0" stroke="rgb(0,0,0)"  stroke-width="1.0"/>
<line x1="106.2" y1="120.0" x2="106.2" y2="80.0" stroke="rgb(0,0,0)"  stroke-width="1.0"/>
<line x1="114.6" y1="120.0" x2="114.6" y2="80.0" stroke="rgb(0,0,0)"  stroke-width="1.0"/>
<line x1="110.4" y1="80.0" x2="110.4" y2="53.0" stroke="rgb(0,0,0)"  stroke-width="1.0"/>
<line x1="138.7" y1="195.9" x2="134.4" y2="209.2" stroke="rgb(0,0,0)"  stroke-width="1.0"/>
<line x1="117.2" y1="221.6" x2="103.6" y2="221.6" stroke="rgb(0,0,0)"  stroke-width="1.0"/>
<line x1="115.2" y1="214.4" x2="105.6" y2="214.4" stroke="rgb(0,0,0)"  stroke-width="1.0"/>
<line x1="86.4" y1="209.2" x2="78.0" y2="183.5" stroke="rgb(0,0,0)"  stroke-width="1.0"/>
<line x1="78.0" y1="183.5" x2="110.4" y2="160.0" stroke="rgb(0,0,0)"  stroke-width="1.0"/>
<line x1="87.1" y1="185.8" x2="109.8" y2="169.4" stroke="rgb(0,0,0)"  stroke-width="1.0"/>
<line x1="110.4" y1="160.0" x2="132.2" y2="175.9" stroke="rgb(0,0,0)"  stroke-width="1.0"/>
<text x="136.763620" y="191.511410" fill="rgb(12,12,255)"  stroke="rgb(12,12,255)" stroke-width="1" font-size="16" >N</text>
<text x="124.402940" y="229.553671" fill="rgb(12,12,255)"  stroke="rgb(12,12,255)" stroke-width="1" font-size="16" >N</text>
<text x="84.402940" y="229.553671" fill="rgb(12,12,255)"  stroke="rgb(12,12,255)" stroke-width="1" font-size="16" >N</text>
<text x="162.445201" y="141.108470" fill="rgb(191,191,191)"  stroke="rgb(191,191,191)" stroke-width="1" font-size="16" >H</text>
<text x="201.571105" y="149.424937" fill="rgb(191,191,191)"  stroke="rgb(191,191,191)" stroke-width="1" font-size="16" >H</text>
<text x="204.531674" y="205.915955" fill="rgb(191,191,191)"  stroke="rgb(191,191,191)" stroke-width="1" font-size="16" >H</text>
<text x="34.000000" y="179.150730" fill="rgb(191,191,191)"  stroke="rgb(191,191,191)" stroke-width="1" font-size="16" >H</text>
<text x="104.402940" y="48.000000" fill="rgb(191,191,191)"  stroke="rgb(191,191,191)" stroke-width="1" font-size="16" >H</text>
<text font-size="18.000000" fill ="black" font-family="sans-serif"
x="10.000000" y="20.000000" ></text>
<title> - OBDepict</title>
</svg>
