<?xml version="1.0"?>
<svg xmlns="http://www.w3.org/2000/svg"
xmlns:xlink="http://www.w3.org/1999/xlink" xmlns:cml="http://www.xml-cml.org/schema" width="303.136" height="226.614" x="0" y="0" font-family="sans-serif" stroke="rgb(0,0,0)" stroke-width="1"  stroke-linecap="round">
<rect x="0%" y="0%" width="100%" height="100%" stroke-width="0" fill="rgb(255,255,255)"  />
<line x1="232.7" y1="52.6" x2="226.2" y2="77.0" stroke="rgb(0,0,0)"  stroke-width="1.0"/>
<line x1="181.4" y1="52.6" x2="187.9" y2="77.0" stroke="rgb(0,0,0)"  stroke-width="1.0"/>
<line x1="187.9" y1="140.5" x2="187.9" y2="115.2" stroke="rgb(0,0,0)"  stroke-width="1.0"/>
<line x1="226.2" y1="77.0" x2="250.6" y2="70.4" stroke="rgb(0,0,0)"  stroke-width="1.0"/>
<line x1="250.6" y1="121.8" x2="226.2" y2="115.2" stroke="rgb(0,0,0)"  stroke-width="1.0"/>
<line x1="187.9" y1="77.0" x2="163.5" y2="70.4" stroke="rgb(0,0,0)"  stroke-width="1.0"/>
<line x1="187.9" y1="115.2" x2="111.4" y2="115.2" stroke="rgb(0,0,0)"  stroke-width="1.0"/>
<line x1="98.8" y1="175.4" x2="111.4" y2="153.5" stroke="rgb(0,0,0)"  stroke-width="1.0"/>
<line x1="226.2" y1="115.2" x2="232.7" y2="139.6" stroke="rgb(0,0,0)"  stroke-width="1.0"/>
<line x1="51.3" y1="102.6" x2="73.1" y2="115.2" stroke="rgb(0,0,0)"  stroke-width="1.0"/>
<line x1="86.1" y1="153.5" x2="111.4" y2="153.5" stroke="rgb(0,0,0)"  stroke-width="1.0"/>
<line x1="111.4" y1="153.5" x2="111.4" y2="115.2" stroke="rgb(0,0,0)"  stroke-width="1.0"/>
<line x1="111.4" y1="153.5" x2="133.3" y2="166.1" stroke="rgb(0,0,0)"  stroke-width="1.0"/>
<line x1="111.4" y1="115.2" x2="73.1" y2="115.2" stroke="rgb(0,0,0)"  stroke-width="1.0"/>
<line x1="111.4" y1="115.2" x2="111.4" y2="90.0" stroke="rgb(0,0,0)"  stroke-width="1.0"/>
<line x1="73.1" y1="115.2" x2="73.1" y2="90.0" stroke="rgb(0,0,0)"  stroke-width="1.0"/>
<line x1="73.1" y1="115.2" x2="60.5" y2="137.1" stroke="rgb(0,0,0)"  stroke-width="1.0"/>
<line x1="100.1" y1="70.5" x2="89.5" y2="64.3" stroke="rgb(0,0,0)"  stroke-width="1.0"/>
<line x1="187.9" y1="115.2" x2="187.9" y2="77.0" stroke="rgb(0,0,0)"  stroke-width="1.0"/>
<line x1="187.9" y1="77.0" x2="226.2" y2="77.0" stroke="rgb(0,0,0)"  stroke-width="1.0"/>
<line x1="226.2" y1="77.0" x2="226.2" y2="115.2" stroke="rgb(0,0,0)"  stroke-width="1.0"/>
<line x1="226.2" y1="115.2" x2="187.9" y2="115.2" stroke="rgb(0,0,0)"  stroke-width="1.0"/>
<text x="105.395755" y="84.957162" fill="rgb(255,12,12)"  stroke="rgb(255,12,12)" stroke-width="1" font-size="16" >O</text>
<text x="86.265320" y="194.613786" fill="rgb(191,191,191)"  stroke="rgb(191,191,191)" stroke-width="1" font-size="16" >H</text>
<text x="67.134885" y="161.478901" fill="rgb(191,191,191)"  stroke="rgb(191,191,191)" stroke-width="1" font-size="16" >H</text>
<text x="138.530640" y="180.609336" fill="rgb(191,191,191)"  stroke="rgb(191,191,191)" stroke-width="1" font-size="16" >H</text>
<text x="48.004450" y="156.352917" fill="rgb(191,191,191)"  stroke="rgb(191,191,191)" stroke-width="1" font-size="16" >H</text>
<text x="67.134885" y="84.957162" fill="rgb(191,191,191)"  stroke="rgb(191,191,191)" stroke-width="1" font-size="16" >H</text>
<text x="34.000000" y="104.087597" fill="rgb(191,191,191)"  stroke="rgb(191,191,191)" stroke-width="1" font-size="16" >H</text>
<text x="72.260870" y="65.826727" fill="rgb(191,191,191)"  stroke="rgb(191,191,191)" stroke-width="1" font-size="16" >H</text>
<text x="181.917494" y="161.478901" fill="rgb(191,191,191)"  stroke="rgb(191,191,191)" stroke-width="1" font-size="16" >H</text>
<text x="257.135525" y="133.120673" fill="rgb(191,191,191)"  stroke="rgb(191,191,191)" stroke-width="1" font-size="16" >H</text>
<text x="230.081005" y="160.175194" fill="rgb(191,191,191)"  stroke="rgb(191,191,191)" stroke-width="1" font-size="16" >H</text>
<text x="230.081005" y="48.000000" fill="rgb(191,191,191)"  stroke="rgb(191,191,191)" stroke-width="1" font-size="16" >H</text>
<text x="257.135525" y="75.054520" fill="rgb(191,191,191)"  stroke="rgb(191,191,191)" stroke-width="1" font-size="16" >H</text>
<text x="144.960332" y="75.054520" fill="rgb(191,191,191)"  stroke="rgb(191,191,191)" stroke-width="1" font-size="16" >H</text>
<text x="172.014852" y="48.000000" fill="rgb(191,191,191)"  stroke="rgb(191,191,191)" stroke-width="1" font-size="16" >H</text>
<text font-size="18.000000" fill ="black" font-family="sans-serif"
x="10.000000" y="20.000000" ></text>
<title> - OBDepict</title>
</svg>
